<?xml version="1.0" standalone="no"?>
<!DOCTYPE svg PUBLIC "-//W3C//DTD SVG 20010904//EN"
 "http://www.w3.org/TR/2001/REC-SVG-20010904/DTD/svg10.dtd">
<svg version="1.0" xmlns="http://www.w3.org/2000/svg"
 width="512.000000pt" height="512.000000pt" viewBox="0 0 512.000000 512.000000"
 preserveAspectRatio="xMidYMid meet">

<g transform="translate(0.000000,512.000000) scale(0.100000,-0.100000)"
fill="white" stroke="none">
<path d="M2330 5110 c-489 -46 -950 -230 -1350 -538 -195 -150 -448 -432 -594
-662 -63 -99 -186 -351 -230 -471 -49 -134 -102 -340 -128 -499 -31 -195 -31
-565 0 -760 45 -276 116 -498 237 -745 132 -269 269 -460 489 -681 221 -220
412 -357 681 -489 247 -121 469 -192 745 -237 195 -31 565 -31 760 0 159 26
365 79 499 128 120 44 372 167 471 230 321 204 620 503 824 824 63 99 186 351
230 471 89 242 146 540 149 775 2 129 0 144 -18 164 -11 12 -30 26 -43 31 -16
6 -384 -27 -1110 -101 -598 -60 -1104 -113 -1124 -116 -56 -9 -92 -55 -85
-108 6 -46 46 -86 86 -86 14 0 490 47 1059 105 569 58 1037 103 1040 101 7 -8
-18 -223 -39 -334 -71 -366 -235 -725 -467 -1017 -81 -102 -263 -285 -367
-370 -319 -258 -682 -422 -1102 -497 -172 -30 -566 -33 -738 -5 -525 86 -972
319 -1340 698 -345 356 -560 785 -642 1284 -28 172 -25 566 5 738 70 392 215
730 446 1037 88 118 294 330 406 420 376 298 825 478 1292 515 l88 7 2 -1201
3 -1201 28 -27 c38 -38 96 -38 134 0 l28 27 0 1270 0 1270 -28 27 c-26 26 -33
28 -120 30 -50 0 -130 -3 -177 -7z"/>
<path d="M2913 5056 l-28 -24 0 -1165 c0 -1151 0 -1165 20 -1187 11 -12 30
-26 43 -31 37 -14 1618 168 1926 222 207 37 221 51 192 201 -72 376 -260 776
-513 1093 -359 448 -912 788 -1467 899 -108 22 -140 21 -173 -8z m267 -216
c43 -11 137 -42 207 -69 722 -272 1256 -863 1458 -1614 17 -64 21 -89 12 -92
-31 -10 -593 -79 -1257 -155 -245 -27 -462 -53 -482 -56 l-38 -6 0 1006 c0
716 3 1006 11 1006 6 0 46 -9 89 -20z"/>
</g>
</svg>
