<svg width="20" height="20" viewBox="0 0 20 20" fill="none" xmlns="http://www.w3.org/2000/svg">
<path d="M13.6002 6.3999C15.0324 6.3999 16.4059 6.96883 17.4186 7.98153C18.4313 8.99422 19.0002 10.3677 19.0002 11.7999V18.0999H15.4002V11.7999C15.4002 11.3225 15.2106 10.8647 14.873 10.5271C14.5354 10.1895 14.0776 9.9999 13.6002 9.9999C13.1228 9.9999 12.665 10.1895 12.3274 10.5271C11.9898 10.8647 11.8002 11.3225 11.8002 11.7999V18.0999H8.2002V11.7999C8.2002 10.3677 8.76912 8.99422 9.78182 7.98153C10.7945 6.96883 12.168 6.3999 13.6002 6.3999V6.3999Z" stroke="white" stroke-width="2" stroke-linecap="round" stroke-linejoin="round"/>
<path d="M4.6 7.2998H1V18.0998H4.6V7.2998Z" stroke="white" stroke-width="2" stroke-linecap="round" stroke-linejoin="round"/>
<path d="M2.8 4.6C3.79411 4.6 4.6 3.79411 4.6 2.8C4.6 1.80589 3.79411 1 2.8 1C1.80589 1 1 1.80589 1 2.8C1 3.79411 1.80589 4.6 2.8 4.6Z" stroke="white" stroke-width="2" stroke-linecap="round" stroke-linejoin="round"/>
</svg>
