<svg width="278" height="70" viewBox="0 0 278 70" fill="none" xmlns="http://www.w3.org/2000/svg">
<circle cx="35" cy="35" r="35" fill="#80ED99"/>
<circle cx="139" cy="35" r="35" fill="#80ED99"/>
<circle cx="243" cy="35" r="35" fill="#80ED99"/>
<path d="M45 15H25C19.4772 15 15 19.4117 15 24.8539V44.5616C15 50.0038 19.4772 54.4155 25 54.4155H45C50.5228 54.4155 55 50.0038 55 44.5616V24.8539C55 19.4117 50.5228 15 45 15Z" stroke="#23013D" stroke-width="3" stroke-linecap="round" stroke-linejoin="round"/>
<path d="M43.0005 33.7267C43.2473 35.3669 42.963 37.042 42.188 38.5138C41.413 39.9855 40.1868 41.179 38.6837 41.9245C37.1807 42.6699 35.4773 42.9294 33.816 42.666C32.1547 42.4026 30.6199 41.6297 29.4301 40.4572C28.2402 39.2848 27.4559 37.7725 27.1885 36.1354C26.9212 34.4984 27.1845 32.82 27.941 31.3389C28.6976 29.8578 29.9088 28.6495 31.4024 27.8859C32.896 27.1222 34.5959 26.8421 36.2605 27.0853C37.9583 27.3334 39.5302 28.113 40.7439 29.3089C41.9576 30.5048 42.7487 32.0537 43.0005 33.7267Z" stroke="#23013D" stroke-width="3" stroke-linecap="round" stroke-linejoin="round"/>
<path d="M46.001 24H46.021" stroke="#23013D" stroke-width="3" stroke-linecap="round" stroke-linejoin="round"/>
<path d="M254 15H248C245.348 15 242.804 16.0382 240.929 17.8861C239.054 19.7341 238 22.2405 238 24.8539V30.7662H232V38.6493H238V54.4155H246V38.6493H252L254 30.7662H246V24.8539C246 24.3312 246.211 23.8299 246.586 23.4603C246.961 23.0907 247.47 22.8831 248 22.8831H254V15Z" stroke="#23013D" stroke-width="3" stroke-linecap="round" stroke-linejoin="round"/>
<path d="M159 19.018C157.259 20.2282 155.331 21.1539 153.291 21.7593C152.196 20.5185 150.741 19.6392 149.122 19.24C147.503 18.8409 145.799 18.9413 144.24 19.5277C142.681 20.114 141.343 21.158 140.405 22.5184C139.468 23.8788 138.978 25.4901 139 27.1342V28.9259C135.805 29.0075 132.639 28.3092 129.784 26.8931C126.929 25.4771 124.473 23.3872 122.636 20.8097C122.636 20.8097 115.364 36.9346 131.727 44.1012C127.983 46.6059 123.522 47.8618 119 47.6845C135.364 56.6428 155.364 47.6845 155.364 27.0805C155.362 26.5814 155.313 26.0836 155.218 25.5934C157.074 23.7901 158.383 21.5133 159 19.018V19.018Z" fill="#23013D" stroke="#23013D" stroke-linecap="round" stroke-linejoin="round"/>
</svg>
