<svg width="18" height="17" viewBox="0 0 18 17" fill="none" xmlns="http://www.w3.org/2000/svg">
<path fill-rule="evenodd" clip-rule="evenodd" d="M0.907359 0.0236296C0.666371 0.0646555 0.394518 0.22665 0.241031 0.420705C-0.0185181 0.748912 0.000324999 0.141681 0.000324999 8.17889C0.000324999 16.2282 -0.0192563 15.6078 0.245566 15.9429C0.344949 16.0686 0.451188 16.1511 0.622076 16.2352L0.860146 16.3524H9H17.1399L17.3779 16.2352C17.5488 16.1511 17.655 16.0686 17.7544 15.9429C18.0193 15.6078 17.9997 16.2282 17.9997 8.17889C17.9997 0.129587 18.0193 0.749932 17.7544 0.414869C17.655 0.289155 17.5488 0.206682 17.3779 0.122556L17.1399 0.00534897L9.1062 0.000427293C4.68771 -0.00227964 0.998199 0.00816139 0.907359 0.0236296ZM12.7909 1.47887C12.9463 1.55916 12.9901 1.68365 12.9901 2.04434C12.9901 2.57033 12.9006 2.65955 12.3731 2.65955C12.0542 2.65955 12.0504 2.65853 11.9319 2.54002L11.8124 2.4205V2.04434V1.66818L11.9319 1.54865C12.0504 1.43015 12.0542 1.42913 12.3731 1.42913C12.5817 1.42913 12.7286 1.44663 12.7909 1.47887ZM14.6605 1.4878C14.8164 1.57987 14.8533 1.68636 14.8533 2.04434C14.8533 2.56136 14.7579 2.65955 14.2557 2.65955C13.7534 2.65955 13.658 2.56136 13.658 2.04434C13.658 1.52661 13.7497 1.43155 14.2503 1.43008C14.4789 1.42937 14.5875 1.44466 14.6605 1.4878ZM16.5794 1.54865L16.6989 1.66818V2.04434V2.4205L16.5794 2.54002C16.4609 2.65853 16.4572 2.65955 16.1382 2.65955C15.6072 2.65955 15.5212 2.57187 15.5212 2.03003C15.5212 1.51578 15.6061 1.43236 16.1312 1.43036C16.4588 1.42913 16.4603 1.42951 16.5794 1.54865ZM16.6989 9.46204V15.0693H9H1.30106V9.46204V3.85482H9H16.6989V9.46204ZM9.7031 5.90032C9.59739 5.9547 9.51973 6.02835 9.46904 6.12232C9.34259 6.3567 7.48834 12.1533 7.48834 12.3142C7.48834 12.4835 7.59387 12.658 7.76683 12.7746C7.97175 12.9127 8.28706 12.8641 8.46941 12.6663C8.57979 12.5466 10.5117 6.58615 10.5117 6.36531C10.5117 6.10478 10.2852 5.86312 10.0147 5.83493C9.90046 5.82304 9.8209 5.83974 9.7031 5.90032ZM5.32848 8.14405C4.49826 8.53068 3.78093 8.88255 3.73438 8.926C3.6073 9.04468 3.55098 9.1769 3.55098 9.35658C3.55098 9.5358 3.60726 9.66847 3.73326 9.78607C3.77917 9.82896 4.49851 10.1809 5.33182 10.5683C6.5902 11.1532 6.87355 11.2725 7.00422 11.2725C7.27762 11.2725 7.5179 11.0528 7.54771 10.7756C7.56884 10.5792 7.4895 10.3893 7.33935 10.2769C7.27628 10.2297 6.83234 10.009 6.35279 9.78645C5.87328 9.56389 5.48373 9.36822 5.4871 9.35162C5.49048 9.33499 5.88766 9.13879 6.36974 8.91556C6.85178 8.69236 7.29825 8.46818 7.36192 8.41738C7.49779 8.30896 7.57904 8.07012 7.54385 7.88249C7.51692 7.73889 7.38196 7.56561 7.23983 7.4921C7.00728 7.37187 6.93029 7.39813 5.32848 8.14405ZM10.737 7.50711C10.5891 7.59728 10.4829 7.74005 10.4557 7.88503C10.421 8.07005 10.5031 8.30963 10.6381 8.41738C10.7017 8.46818 11.1482 8.69236 11.6303 8.91556C12.1123 9.13879 12.5127 9.33355 12.5199 9.34835C12.5271 9.36315 12.1376 9.55883 11.6542 9.78319C11.1708 10.0075 10.7237 10.2297 10.6607 10.2769C10.2498 10.5844 10.4814 11.2725 10.9958 11.2725C11.1265 11.2725 11.4098 11.1532 12.6682 10.5683C13.5015 10.1809 14.2208 9.82896 14.2667 9.78607C14.3927 9.66847 14.449 9.5358 14.449 9.35658C14.449 9.1769 14.3927 9.04468 14.2656 8.926C14.2191 8.88255 13.5017 8.53068 12.6715 8.14405C11.0394 7.38403 10.9742 7.36252 10.737 7.50711Z" fill="white"/>
</svg>
